# xmcd
#
# Track frame offsets:
#	150
#	18629
#	39325
#	54702
#	87079
#	103165
#	118677
#	154421
#	166344
#	183700
#	206700
#	249687
#	284736
#	308006
#	328407
#
# Disc length: 4477 seconds
#
# Revision: 1
# Processed by: cddbd v1.5.2PL0 Copyright (c) Steve Scherf et al.
# Submitted via: EZCDAudioConverter 7.0.0.1
#
DISCID=e3117b0f
DTITLE=Various Artist - Black and White Blues
DYEAR=2008
DGENRE=Blues
TTITLE0=Bobby Blue Bland - Stormy Monday Blues
TTITLE1=Aretha Franklin - The Thrill Is Gone
TTITLE2=Otis Redding - Hawg For You
TTITLE3=Albert King - I'll Play The Blues For You
TTITLE4=O.V.Wright - A Nickel And A Nail 
TTITLE5=B.B. King - Paying The Cost To Be The Boss
TTITLE6=Lou Rowls - South Side Blues Monologue/Tobaco Road (Medley)
TTITLE7=J.J. Cale - Super Blue
TTITLE8=Captain Beefheart - Same Old Blues
TTITLE9=Tom Waits - Wrong Side Of The Road
TTITLE10=Van Morrison - T.B. Sheets
TTITLE11=Tony Joe White - Boom Boom
TTITLE12=Johny Jenkins and Duane Allman - Walk On Gilded Splinters
TTITLE13=Al Kooper - Can't Keep From Crying Sometimes
TTITLE14=Vera Hall - Trouble So Hard
EXTD=
EXTT0=
EXTT1=
EXTT2=
EXTT3=
EXTT4=
EXTT5=
EXTT6=
EXTT7=
EXTT8=
EXTT9=
EXTT10=
EXTT11=
EXTT12=
EXTT13=
EXTT14=
PLAYORDER=
